<?xml version="1.0" ?><svg xmlns="http://www.w3.org/2000/svg" width="24" height="24" viewBox="0 0 24 24" fill="none"><g id="letter-z"><g id="outline" filter="url(#filter0_d_1701_1229)"><path d="M20 4C20 3.44772 19.5523 3 19 3H5C4.44772 3 4 3.44772 4 4V9C4 9.55228 4.44772 10 5 10H6.63602C7.52693 10 7.97309 11.0771 7.34313 11.7071L4.29289 14.7573C4.10536 14.9449 4 15.1992 4 15.4644V20C4 20.5523 4.44772 21 5 21H19C19.5523 21 20 20.5523 20 20V15C20 14.4477 19.5523 14 19 14H17.3639C16.473 14 16.0269 12.9229 16.6568 12.2929L19.7071 9.24262C19.8946 9.05509 20 8.80073 20 8.53551V4Z" fill="white"/></g><path id="icon" d="M6 5H18V8.1213L10.1213 16H18V19H6V15.8787L13.8787 8H6V5Z" fill="red"/></g><defs><filter id="filter0_d_1701_1229" x="2" y="1.5" width="20" height="22" filterUnits="userSpaceOnUse" color-interpolation-filters="sRGB"><feFlood flood-opacity="0" result="BackgroundImageFix"/><feColorMatrix in="SourceAlpha" type="matrix" values="0 0 0 0 0 0 0 0 0 0 0 0 0 0 0 0 0 0 127 0" result="hardAlpha"/><feOffset dy="0.5"/><feGaussianBlur stdDeviation="1"/><feComposite in2="hardAlpha" operator="out"/><feColorMatrix type="matrix" values="0 0 0 0 0 0 0 0 0 0 0 0 0 0 0 0 0 0 0.25 0"/><feBlend mode="normal" in2="BackgroundImageFix" result="effect1_dropShadow_1701_1229"/><feBlend mode="normal" in="SourceGraphic" in2="effect1_dropShadow_1701_1229" result="shape"/></filter></defs></svg>